ffmpeg version 3.4.8-0ubuntu0.2 Copyright (c) 2000-2020 the FFmpeg developers
  built with gcc 7 (Ubuntu 7.5.0-3ubuntu1~18.04)
  configuration: --prefix=/usr --extra-version=0ubuntu0.2 --toolchain=hardened --libdir=/usr/lib/x86_64-linux-gnu --incdir=/usr/include/x86_64-linux-gnu --enable-gpl --disable-stripping --enable-avresample --enable-avisynth --enable-gnutls --enable-ladspa --enable-libass --enable-libbluray --enable-libbs2b --enable-libcaca --enable-libcdio --enable-libflite --enable-libfontconfig --enable-libfreetype --enable-libfribidi --enable-libgme --enable-libgsm --enable-libmp3lame --enable-libmysofa --enable-libopenjpeg --enable-libopenmpt --enable-libopus --enable-libpulse --enable-librubberband --enable-librsvg --enable-libshine --enable-libsnappy --enable-libsoxr --enable-libspeex --enable-libssh --enable-libtheora --enable-libtwolame --enable-libvorbis --enable-libvpx --enable-libwavpack --enable-libwebp --enable-libx265 --enable-libxml2 --enable-libxvid --enable-libzmq --enable-libzvbi --enable-omx --enable-openal --enable-opengl --enable-sdl2 --enable-libdc1394 --enable-libdrm --enable-libiec61883 --enable-chromaprint --enable-frei0r --enable-libopencv --enable-libx264 --enable-shared
  libavutil      55. 78.100 / 55. 78.100
  libavcodec     57.107.100 / 57.107.100
  libavformat    57. 83.100 / 57. 83.100
  libavdevice    57. 10.100 / 57. 10.100
  libavfilter     6.107.100 /  6.107.100
  libavresample   3.  7.  0 /  3.  7.  0
  libswscale      4.  8.100 /  4.  8.100
  libswresample   2.  9.100 /  2.  9.100
  libpostproc    54.  7.100 / 54.  7.100
[rawvideo @ 0x562e3f9f5a20] Estimating duration from bitrate, this may be inaccurate
Input #0, rawvideo, from '../../SVC-Encoder-20220109T061506Z-001/SVC-Encoder/Dataset/RollerCoaster/ERP_8x8/tile_yuv/Tile_41_480x240.yuv':
  Duration: 00:00:10.00, start: 0.000000, bitrate: 41472 kb/s
    Stream #0:0: Video: rawvideo (I420 / 0x30323449), yuv420p, 480x240, 41472 kb/s, 30 tbr, 30 tbn, 30 tbc
Stream mapping:
  Stream #0:0 -> #0:0 (rawvideo (native) -> h264 (libx264))
Press [q] to stop, [?] for help
[libx264 @ 0x562e3fa02c60] using cpu capabilities: MMX2 SSE2Fast LZCNT SSSE3 SSE4.2 AVX
[libx264 @ 0x562e3fa02c60] profile High, level 2.1
Output #0, rawvideo, to 'RollerCoaster_Tile_41_480x240_x264_QP_24.h264':
  Metadata:
    encoder         : Lavf57.83.100
    Stream #0:0: Video: h264 (libx264), yuv420p, 480x240, q=-1--1, 30 fps, 30 tbn, 30 tbc
    Metadata:
      encoder         : Lavc57.107.100 libx264
    Side data:
      cpb: bitrate max/min/avg: 0/0/0 buffer size: 0 vbv_delay: -1
frame=  143 fps=0.0 q=30.0 PSNR=Y:nan U:nan V:nan *:nan size=     120kB time=00:00:03.33 bitrate= 294.6kbits/s speed=6.67x    frame=  280 fps=280 q=30.0 PSNR=Y:nan U:nan V:nan *:nan size=     256kB time=00:00:07.90 bitrate= 265.5kbits/s speed=7.89x    frame=  300 fps=246 q=30.0 LPSNR=Y:inf U:inf V:inf *:inf size=     349kB time=00:00:09.93 bitrate= 287.7kbits/s speed=8.14x    
video:349kB audio:0kB subtitle:0kB other streams:0kB global headers:0kB muxing overhead: 0.000000%
[libx264 @ 0x562e3fa02c60] frame I:2     Avg QP:22.51  size: 14610  PSNR Mean Y:44.83 U:48.93 V:48.57 Avg:45.78 Global:45.72
[libx264 @ 0x562e3fa02c60] frame P:77    Avg QP:24.10  size:  3398  PSNR Mean Y:41.67 U:48.18 V:47.79 Avg:42.95 Global:42.88
[libx264 @ 0x562e3fa02c60] frame B:221   Avg QP:29.44  size:   300  PSNR Mean Y:41.36 U:47.98 V:47.65 Avg:42.65 Global:42.59
[libx264 @ 0x562e3fa02c60] consecutive B-frames:  1.0%  2.0%  1.0% 96.0%
[libx264 @ 0x562e3fa02c60] mb I  I16..4:  6.9% 78.0% 15.1%
[libx264 @ 0x562e3fa02c60] mb P  I16..4:  0.3%  0.2%  0.0%  P16..4: 45.7% 22.4% 14.6%  0.0%  0.0%    skip:16.8%
[libx264 @ 0x562e3fa02c60] mb B  I16..4:  0.0%  0.0%  0.0%  B16..8: 38.2%  2.6%  0.2%  direct: 0.2%  skip:58.8%  L0:36.1% L1:55.2% BI: 8.7%
[libx264 @ 0x562e3fa02c60] 8x8 transform intra:71.2% inter:65.9%
[libx264 @ 0x562e3fa02c60] coded y,uvDC,uvAC intra: 71.8% 84.8% 47.7% inter: 11.1% 9.9% 0.1%
[libx264 @ 0x562e3fa02c60] i16 v,h,dc,p: 19% 37% 28% 16%
[libx264 @ 0x562e3fa02c60] i8 v,h,dc,ddl,ddr,vr,hd,vl,hu:  6% 18% 16% 11% 11%  7% 14%  8%  8%
[libx264 @ 0x562e3fa02c60] i4 v,h,dc,ddl,ddr,vr,hd,vl,hu: 10% 21% 13% 14%  9%  5% 12%  8%  7%
[libx264 @ 0x562e3fa02c60] i8c dc,h,v,p: 40% 32%  9% 19%
[libx264 @ 0x562e3fa02c60] Weighted P-Frames: Y:0.0% UV:0.0%
[libx264 @ 0x562e3fa02c60] ref P L0: 68.4% 19.1% 11.2%  1.3%
[libx264 @ 0x562e3fa02c60] ref B L0: 95.7%  3.8%  0.4%
[libx264 @ 0x562e3fa02c60] ref B L1: 97.4%  2.6%
[libx264 @ 0x562e3fa02c60] PSNR Mean Y:41.463 U:48.035 V:47.691 Avg:42.750 Global:42.675 kb/s:285.79
